<svg xmlns="http://www.w3.org/2000/svg" viewBox="-16 -16 292 212" width="292" height="212"><rect x="-16" y="-16" width="292" height="212" fill="#0B100D"/><g fill="#3BAE88"><rect x="0" y="0" width="20" height="100"/><rect x="37.5" y="-2.5" width="25" height="25"/><rect x="117.5" y="-2.5" width="25" height="25"/><rect x="57.5" y="17.5" width="25" height="25"/><rect x="97.5" y="17.5" width="25" height="25"/><rect x="57.5" y="57.5" width="25" height="25"/><rect x="97.5" y="57.5" width="25" height="25"/><rect x="37.5" y="77.5" width="25" height="25"/><rect x="117.5" y="77.5" width="25" height="25"/><rect x="160" y="0" width="100" height="20"/><rect x="160" y="20" width="20" height="22"/><rect x="240" y="20" width="20" height="22"/><rect x="200" y="20" width="20" height="80"/></g><rect x="73" y="33" width="34" height="34" fill="#EADFC4"/><rect x="84" y="44" width="12" height="12" fill="#0B100D"/><g fill="#3BAE88"><path transform="translate(15.672 132.000) scale(0.007754 -0.007754)" d="M96 0V121H287V1372H96V1493H864V1372H672V121H864V0Z"/><path transform="translate(33.350 132.000) scale(0.007754 -0.007754)" d="M694 575 383 121H567V0H37V121H221L614 692L147 1372H10V1493H752V1372H588L877 952L1163 1372H989V1493H1509V1372H1325L956 836L1446 121H1587V0H842V121H1008Z"/><path transform="translate(55.921 132.000) scale(0.007754 -0.007754)" d="M371 0V121H569V1356H160V1120H23V1493H1503V1120H1368V1356H956V121H1155V0Z"/><path transform="translate(77.988 132.000) scale(0.007754 -0.007754)" d="M96 0V121H287V1372H96V1493H864V1372H672V137H1260V373H1395V0Z"/><path transform="translate(99.404 132.000) scale(0.007754 -0.007754)" d="M-16 0V121H106L668 1493H907L1470 121H1612V0H913V121H1059L936 426H375L250 121H428V0ZM424 547H887L657 1118Z"/><path transform="translate(121.975 132.000) scale(0.007754 -0.007754)" d="M86 0V121H276V1372H86V1493H702L1128 535L1556 1493H2171V1372H1980V121H2171V0H1403V121H1593V1260L1130 219H877L416 1260V121H606V0Z"/><path transform="translate(149.803 132.000) scale(0.007754 -0.007754)" d="M-16 0V121H106L668 1493H907L1470 121H1612V0H913V121H1059L936 426H375L250 121H428V0ZM424 547H887L657 1118Z"/><path transform="translate(172.374 132.000) scale(0.007754 -0.007754)" d="M371 0V121H569V1356H160V1120H23V1493H1503V1120H1368V1356H956V121H1155V0Z"/><path transform="translate(194.441 132.000) scale(0.007754 -0.007754)" d="M96 0V121H287V1372H96V1493H864V1372H672V121H864V0Z"/><path transform="translate(212.119 132.000) scale(0.007754 -0.007754)" d="M90 0V121H281V1372H90V1493H557L1458 436V1372H1268V1493H1790V1372H1599V0H1337L422 1079V121H612V0Z"/><path transform="translate(236.884 132.000) scale(0.007754 -0.007754)" d="M96 0V121H287V1372H96V1493H864V1372H672V121H864V0Z"/></g><rect x="80" y="151" width="100" height="1.4" fill="#EADFC4"/><g fill="#EADFC4"><path transform="translate(31.334 180.000) scale(0.005190 -0.005190)" d="M510 655Q287 740 208.0 833.5Q129 927 129 1085Q129 1288 259.0 1404.0Q389 1520 616 1520Q719 1520 822.0 1496.5Q925 1473 1026 1427V1139Q931 1206 833.0 1241.0Q735 1276 639 1276Q532 1276 475.0 1233.0Q418 1190 418 1110Q418 1048 459.5 1007.5Q501 967 633 918L760 870Q940 804 1025.0 695.0Q1110 586 1110 420Q1110 194 976.5 82.5Q843 -29 573 -29Q462 -29 350.5 -2.5Q239 24 135 76V381Q253 297 363.5 256.0Q474 215 582 215Q691 215 751.0 264.5Q811 314 811 403Q811 470 771.0 520.5Q731 571 655 600Z"/><path transform="translate(41.348 180.000) scale(0.005190 -0.005190)" d="M616 1223 477 612H756ZM436 1493H797L1200 0H905L813 369H418L328 0H33Z"/><path transform="translate(51.362 180.000) scale(0.005190 -0.005190)" d="M410 678V236H606Q747 236 803.5 284.0Q860 332 860 451Q860 572 801.0 625.0Q742 678 606 678ZM410 1260V913H606Q718 913 765.5 953.0Q813 993 813 1085Q813 1177 764.5 1218.5Q716 1260 606 1260ZM125 1495H606Q855 1495 980.5 1400.5Q1106 1306 1106 1118Q1106 974 1032.0 893.0Q958 812 815 799Q986 782 1072.5 684.0Q1159 586 1159 410Q1159 194 1029.0 97.0Q899 0 606 0H125Z"/><path transform="translate(61.376 180.000) scale(0.005190 -0.005190)" d="M1098 0H168V1493H1098V1233H463V911H1038V651H463V260H1098Z"/><path transform="translate(71.389 180.000) scale(0.005190 -0.005190)" d="M807 705Q851 696 883.5 663.5Q916 631 963 537L1233 0H909L729 377Q721 393 708 421Q629 590 522 590H428V0H133V1493H559Q847 1493 972.5 1391.0Q1098 1289 1098 1059Q1098 905 1023.0 814.0Q948 723 807 705ZM428 1245V838H567Q688 838 740.5 885.5Q793 933 793 1042Q793 1151 741.0 1198.0Q689 1245 567 1245Z"/><path transform="translate(91.417 180.000) scale(0.005190 -0.005190)" d="M449 895H782V530H449Z"/><path transform="translate(111.445 180.000) scale(0.005190 -0.005190)" d="M616 246 879 1493H1176L821 0H412L57 1493H354Z"/><path transform="translate(121.458 180.000) scale(0.005190 -0.005190)" d="M1098 0H168V1493H1098V1233H463V911H1038V651H463V260H1098Z"/><path transform="translate(131.472 180.000) scale(0.005190 -0.005190)" d="M807 705Q851 696 883.5 663.5Q916 631 963 537L1233 0H909L729 377Q721 393 708 421Q629 590 522 590H428V0H133V1493H559Q847 1493 972.5 1391.0Q1098 1289 1098 1059Q1098 905 1023.0 814.0Q948 723 807 705ZM428 1245V838H567Q688 838 740.5 885.5Q793 933 793 1042Q793 1151 741.0 1198.0Q689 1245 567 1245Z"/><path transform="translate(151.500 180.000) scale(0.005190 -0.005190)" d="M449 895H782V530H449Z"/><path transform="translate(171.527 180.000) scale(0.005190 -0.005190)" d="M1081 43Q1011 7 934.0 -11.0Q857 -29 772 -29Q470 -29 311.0 170.0Q152 369 152 745Q152 1122 311.0 1321.0Q470 1520 772 1520Q857 1520 935.0 1502.0Q1013 1484 1081 1448V1120Q1005 1190 933.5 1222.5Q862 1255 786 1255Q624 1255 541.5 1126.5Q459 998 459 745Q459 493 541.5 364.5Q624 236 786 236Q862 236 933.5 268.5Q1005 301 1081 371Z"/><path transform="translate(181.541 180.000) scale(0.005190 -0.005190)" d="M807 705Q851 696 883.5 663.5Q916 631 963 537L1233 0H909L729 377Q721 393 708 421Q629 590 522 590H428V0H133V1493H559Q847 1493 972.5 1391.0Q1098 1289 1098 1059Q1098 905 1023.0 814.0Q948 723 807 705ZM428 1245V838H567Q688 838 740.5 885.5Q793 933 793 1042Q793 1151 741.0 1198.0Q689 1245 567 1245Z"/><path transform="translate(191.555 180.000) scale(0.005190 -0.005190)" d="M1098 0H168V1493H1098V1233H463V911H1038V651H463V260H1098Z"/><path transform="translate(201.569 180.000) scale(0.005190 -0.005190)" d="M1081 43Q1011 7 934.0 -11.0Q857 -29 772 -29Q470 -29 311.0 170.0Q152 369 152 745Q152 1122 311.0 1321.0Q470 1520 772 1520Q857 1520 935.0 1502.0Q1013 1484 1081 1448V1120Q1005 1190 933.5 1222.5Q862 1255 786 1255Q624 1255 541.5 1126.5Q459 998 459 745Q459 493 541.5 364.5Q624 236 786 236Q862 236 933.5 268.5Q1005 301 1081 371Z"/><path transform="translate(211.583 180.000) scale(0.005190 -0.005190)" d="M1098 0H168V1493H1098V1233H463V911H1038V651H463V260H1098Z"/><path transform="translate(221.596 180.000) scale(0.005190 -0.005190)" d="M807 705Q851 696 883.5 663.5Q916 631 963 537L1233 0H909L729 377Q721 393 708 421Q629 590 522 590H428V0H133V1493H559Q847 1493 972.5 1391.0Q1098 1289 1098 1059Q1098 905 1023.0 814.0Q948 723 807 705ZM428 1245V838H567Q688 838 740.5 885.5Q793 933 793 1042Q793 1151 741.0 1198.0Q689 1245 567 1245Z"/></g></svg>