<svg xmlns="http://www.w3.org/2000/svg" viewBox="-16 -16 292 164" width="292" height="164"><defs><pattern id="tj" width="27.675" height="21.01" patternUnits="userSpaceOnUse"><g font-family="IBM Plex Mono,ui-monospace,monospace" font-size="1.25" letter-spacing="-0.0188" fill="#3BAE88" xml:space="preserve"><text x="0" y="0.783">01101001011110000111010001101100011000010</text><text x="0" y="1.738">11011010110000101110100011010010110111001</text><text x="0" y="2.693">10100101101001011110000111010001101100011</text><text x="0" y="3.648">00001011011010110000101110100011010010110</text><text x="0" y="4.603">11100110100101101001011110000111010001101</text><text x="0" y="5.558">10001100001011011010110000101110100011010</text><text x="0" y="6.513">01011011100110100101101001011110000111010</text><text x="0" y="7.468">00110110001100001011011010110000101110100</text><text x="0" y="8.423">01101001011011100110100101101001011110000</text><text x="0" y="9.378">11101000110110001100001011011010110000101</text><text x="0" y="10.333">11010001101001011011100110100101101001011</text><text x="0" y="11.288">11000011101000110110001100001011011010110</text><text x="0" y="12.243">00010111010001101001011011100110100101101</text><text x="0" y="13.198">00101111000011101000110110001100001011011</text><text x="0" y="14.153">01011000010111010001101001011011100110100</text><text x="0" y="15.108">10110100101111000011101000110110001100001</text><text x="0" y="16.063">01101101011000010111010001101001011011100</text><text x="0" y="17.018">11010010110100101111000011101000110110001</text><text x="0" y="17.973">10000101101101011000010111010001101001011</text><text x="0" y="18.928">01110011010010110100101111000011101000110</text><text x="0" y="19.883">11000110000101101101011000010111010001101</text><text x="0" y="20.838">00101101110011010010110100101111000011101</text></g></pattern><pattern id="tjd" width="27.675" height="21.01" patternUnits="userSpaceOnUse"><g font-family="IBM Plex Mono,ui-monospace,monospace" font-size="1.25" letter-spacing="-0.0188" fill="#0F6B4F" xml:space="preserve"><text x="0" y="0.783">01101001011110000111010001101100011000010</text><text x="0" y="1.738">11011010110000101110100011010010110111001</text><text x="0" y="2.693">10100101101001011110000111010001101100011</text><text x="0" y="3.648">00001011011010110000101110100011010010110</text><text x="0" y="4.603">11100110100101101001011110000111010001101</text><text x="0" y="5.558">10001100001011011010110000101110100011010</text><text x="0" y="6.513">01011011100110100101101001011110000111010</text><text x="0" y="7.468">00110110001100001011011010110000101110100</text><text x="0" y="8.423">01101001011011100110100101101001011110000</text><text x="0" y="9.378">11101000110110001100001011011010110000101</text><text x="0" y="10.333">11010001101001011011100110100101101001011</text><text x="0" y="11.288">11000011101000110110001100001011011010110</text><text x="0" y="12.243">00010111010001101001011011100110100101101</text><text x="0" y="13.198">00101111000011101000110110001100001011011</text><text x="0" y="14.153">01011000010111010001101001011011100110100</text><text x="0" y="15.108">10110100101111000011101000110110001100001</text><text x="0" y="16.063">01101101011000010111010001101001011011100</text><text x="0" y="17.018">11010010110100101111000011101000110110001</text><text x="0" y="17.973">10000101101101011000010111010001101001011</text><text x="0" y="18.928">01110011010010110100101111000011101000110</text><text x="0" y="19.883">11000110000101101101011000010111010001101</text><text x="0" y="20.838">00101101110011010010110100101111000011101</text></g></pattern><pattern id="gj" width="27.54" height="20.628" patternUnits="userSpaceOnUse"><g font-family="IBM Plex Mono,ui-monospace,monospace" font-size="3.0" letter-spacing="-0.045" fill="#3BAE88" xml:space="preserve"><text x="0" y="1.879">01101001011110000</text><text x="0" y="4.171">11101000110110001</text><text x="0" y="6.463">10000101101101011</text><text x="0" y="8.755">00001011101000110</text><text x="0" y="11.047">10010110111001101</text><text x="0" y="13.339">00101101001011110</text><text x="0" y="15.631">00011101000110110</text><text x="0" y="17.923">00110000101101101</text><text x="0" y="20.215">01100001011101000</text></g></pattern><pattern id="gjd" width="27.54" height="20.628" patternUnits="userSpaceOnUse"><g font-family="IBM Plex Mono,ui-monospace,monospace" font-size="3.0" letter-spacing="-0.045" fill="#0F6B4F" xml:space="preserve"><text x="0" y="1.879">01101001011110000</text><text x="0" y="4.171">11101000110110001</text><text x="0" y="6.463">10000101101101011</text><text x="0" y="8.755">00001011101000110</text><text x="0" y="11.047">10010110111001101</text><text x="0" y="13.339">00101101001011110</text><text x="0" y="15.631">00011101000110110</text><text x="0" y="17.923">00110000101101101</text><text x="0" y="20.215">01100001011101000</text></g></pattern><pattern id="gn" width="27.54" height="20.628" patternUnits="userSpaceOnUse"><g font-family="IBM Plex Mono,ui-monospace,monospace" font-size="3.0" letter-spacing="-0.045" fill="#000000" xml:space="preserve"><text x="0" y="1.879">01101001011110000</text><text x="0" y="4.171">11101000110110001</text><text x="0" y="6.463">10000101101101011</text><text x="0" y="8.755">00001011101000110</text><text x="0" y="11.047">10010110111001101</text><text x="0" y="13.339">00101101001011110</text><text x="0" y="15.631">00011101000110110</text><text x="0" y="17.923">00110000101101101</text><text x="0" y="20.215">01100001011101000</text></g></pattern><pattern id="tn" width="27.675" height="21.01" patternUnits="userSpaceOnUse"><g font-family="IBM Plex Mono,ui-monospace,monospace" font-size="1.25" letter-spacing="-0.0188" fill="#000000" xml:space="preserve"><text x="0" y="0.783">01101001011110000111010001101100011000010</text><text x="0" y="1.738">11011010110000101110100011010010110111001</text><text x="0" y="2.693">10100101101001011110000111010001101100011</text><text x="0" y="3.648">00001011011010110000101110100011010010110</text><text x="0" y="4.603">11100110100101101001011110000111010001101</text><text x="0" y="5.558">10001100001011011010110000101110100011010</text><text x="0" y="6.513">01011011100110100101101001011110000111010</text><text x="0" y="7.468">00110110001100001011011010110000101110100</text><text x="0" y="8.423">01101001011011100110100101101001011110000</text><text x="0" y="9.378">11101000110110001100001011011010110000101</text><text x="0" y="10.333">11010001101001011011100110100101101001011</text><text x="0" y="11.288">11000011101000110110001100001011011010110</text><text x="0" y="12.243">00010111010001101001011011100110100101101</text><text x="0" y="13.198">00101111000011101000110110001100001011011</text><text x="0" y="14.153">01011000010111010001101001011011100110100</text><text x="0" y="15.108">10110100101111000011101000110110001100001</text><text x="0" y="16.063">01101101011000010111010001101001011011100</text><text x="0" y="17.018">11010010110100101111000011101000110110001</text><text x="0" y="17.973">10000101101101011000010111010001101001011</text><text x="0" y="18.928">01110011010010110100101111000011101000110</text><text x="0" y="19.883">11000110000101101101011000010111010001101</text><text x="0" y="20.838">00101101110011010010110100101111000011101</text></g></pattern></defs><rect x="-16" y="-16" width="292" height="164" fill="#F3F4EF"/><g fill="#0F6B4F"><rect x="0" y="0" width="20" height="100"/><rect x="37.5" y="-2.5" width="25" height="25"/><rect x="117.5" y="-2.5" width="25" height="25"/><rect x="57.5" y="17.5" width="25" height="25"/><rect x="97.5" y="17.5" width="25" height="25"/><rect x="57.5" y="57.5" width="25" height="25"/><rect x="97.5" y="57.5" width="25" height="25"/><rect x="37.5" y="77.5" width="25" height="25"/><rect x="117.5" y="77.5" width="25" height="25"/><rect x="160" y="0" width="100" height="20"/><rect x="160" y="20" width="20" height="22"/><rect x="240" y="20" width="20" height="22"/><rect x="200" y="20" width="20" height="80"/></g><rect x="73" y="33" width="34" height="34" fill="#0B100D"/><rect x="84" y="44" width="12" height="12" fill="#F3F4EF"/><g fill="#0F6B4F"><path transform="translate(15.672 132.000) scale(0.007754 -0.007754)" d="M96 0V121H287V1372H96V1493H864V1372H672V121H864V0Z"/><path transform="translate(33.350 132.000) scale(0.007754 -0.007754)" d="M694 575 383 121H567V0H37V121H221L614 692L147 1372H10V1493H752V1372H588L877 952L1163 1372H989V1493H1509V1372H1325L956 836L1446 121H1587V0H842V121H1008Z"/><path transform="translate(55.921 132.000) scale(0.007754 -0.007754)" d="M371 0V121H569V1356H160V1120H23V1493H1503V1120H1368V1356H956V121H1155V0Z"/><path transform="translate(77.988 132.000) scale(0.007754 -0.007754)" d="M96 0V121H287V1372H96V1493H864V1372H672V137H1260V373H1395V0Z"/><path transform="translate(99.404 132.000) scale(0.007754 -0.007754)" d="M-16 0V121H106L668 1493H907L1470 121H1612V0H913V121H1059L936 426H375L250 121H428V0ZM424 547H887L657 1118Z"/><path transform="translate(121.975 132.000) scale(0.007754 -0.007754)" d="M86 0V121H276V1372H86V1493H702L1128 535L1556 1493H2171V1372H1980V121H2171V0H1403V121H1593V1260L1130 219H877L416 1260V121H606V0Z"/><path transform="translate(149.803 132.000) scale(0.007754 -0.007754)" d="M-16 0V121H106L668 1493H907L1470 121H1612V0H913V121H1059L936 426H375L250 121H428V0ZM424 547H887L657 1118Z"/><path transform="translate(172.374 132.000) scale(0.007754 -0.007754)" d="M371 0V121H569V1356H160V1120H23V1493H1503V1120H1368V1356H956V121H1155V0Z"/><path transform="translate(194.441 132.000) scale(0.007754 -0.007754)" d="M96 0V121H287V1372H96V1493H864V1372H672V121H864V0Z"/><path transform="translate(212.119 132.000) scale(0.007754 -0.007754)" d="M90 0V121H281V1372H90V1493H557L1458 436V1372H1268V1493H1790V1372H1599V0H1337L422 1079V121H612V0Z"/><path transform="translate(236.884 132.000) scale(0.007754 -0.007754)" d="M96 0V121H287V1372H96V1493H864V1372H672V121H864V0Z"/></g></svg>