<svg xmlns="http://www.w3.org/2000/svg" viewBox="32.5 -7.5 115 115" width="115" height="115"><defs><pattern id="tj" width="27.675" height="21.01" patternUnits="userSpaceOnUse"><g font-family="IBM Plex Mono,ui-monospace,monospace" font-size="1.25" letter-spacing="-0.0188" fill="#3BAE88" xml:space="preserve"><text x="0" y="0.783">01101001011110000111010001101100011000010</text><text x="0" y="1.738">11011010110000101110100011010010110111001</text><text x="0" y="2.693">10100101101001011110000111010001101100011</text><text x="0" y="3.648">00001011011010110000101110100011010010110</text><text x="0" y="4.603">11100110100101101001011110000111010001101</text><text x="0" y="5.558">10001100001011011010110000101110100011010</text><text x="0" y="6.513">01011011100110100101101001011110000111010</text><text x="0" y="7.468">00110110001100001011011010110000101110100</text><text x="0" y="8.423">01101001011011100110100101101001011110000</text><text x="0" y="9.378">11101000110110001100001011011010110000101</text><text x="0" y="10.333">11010001101001011011100110100101101001011</text><text x="0" y="11.288">11000011101000110110001100001011011010110</text><text x="0" y="12.243">00010111010001101001011011100110100101101</text><text x="0" y="13.198">00101111000011101000110110001100001011011</text><text x="0" y="14.153">01011000010111010001101001011011100110100</text><text x="0" y="15.108">10110100101111000011101000110110001100001</text><text x="0" y="16.063">01101101011000010111010001101001011011100</text><text x="0" y="17.018">11010010110100101111000011101000110110001</text><text x="0" y="17.973">10000101101101011000010111010001101001011</text><text x="0" y="18.928">01110011010010110100101111000011101000110</text><text x="0" y="19.883">11000110000101101101011000010111010001101</text><text x="0" y="20.838">00101101110011010010110100101111000011101</text></g></pattern><pattern id="tjd" width="27.675" height="21.01" patternUnits="userSpaceOnUse"><g font-family="IBM Plex Mono,ui-monospace,monospace" font-size="1.25" letter-spacing="-0.0188" fill="#0F6B4F" xml:space="preserve"><text x="0" y="0.783">01101001011110000111010001101100011000010</text><text x="0" y="1.738">11011010110000101110100011010010110111001</text><text x="0" y="2.693">10100101101001011110000111010001101100011</text><text x="0" y="3.648">00001011011010110000101110100011010010110</text><text x="0" y="4.603">11100110100101101001011110000111010001101</text><text x="0" y="5.558">10001100001011011010110000101110100011010</text><text x="0" y="6.513">01011011100110100101101001011110000111010</text><text x="0" y="7.468">00110110001100001011011010110000101110100</text><text x="0" y="8.423">01101001011011100110100101101001011110000</text><text x="0" y="9.378">11101000110110001100001011011010110000101</text><text x="0" y="10.333">11010001101001011011100110100101101001011</text><text x="0" y="11.288">11000011101000110110001100001011011010110</text><text x="0" y="12.243">00010111010001101001011011100110100101101</text><text x="0" y="13.198">00101111000011101000110110001100001011011</text><text x="0" y="14.153">01011000010111010001101001011011100110100</text><text x="0" y="15.108">10110100101111000011101000110110001100001</text><text x="0" y="16.063">01101101011000010111010001101001011011100</text><text x="0" y="17.018">11010010110100101111000011101000110110001</text><text x="0" y="17.973">10000101101101011000010111010001101001011</text><text x="0" y="18.928">01110011010010110100101111000011101000110</text><text x="0" y="19.883">11000110000101101101011000010111010001101</text><text x="0" y="20.838">00101101110011010010110100101111000011101</text></g></pattern><pattern id="gj" width="27.54" height="20.628" patternUnits="userSpaceOnUse"><g font-family="IBM Plex Mono,ui-monospace,monospace" font-size="3.0" letter-spacing="-0.045" fill="#3BAE88" xml:space="preserve"><text x="0" y="1.879">01101001011110000</text><text x="0" y="4.171">11101000110110001</text><text x="0" y="6.463">10000101101101011</text><text x="0" y="8.755">00001011101000110</text><text x="0" y="11.047">10010110111001101</text><text x="0" y="13.339">00101101001011110</text><text x="0" y="15.631">00011101000110110</text><text x="0" y="17.923">00110000101101101</text><text x="0" y="20.215">01100001011101000</text></g></pattern><pattern id="gjd" width="27.54" height="20.628" patternUnits="userSpaceOnUse"><g font-family="IBM Plex Mono,ui-monospace,monospace" font-size="3.0" letter-spacing="-0.045" fill="#0F6B4F" xml:space="preserve"><text x="0" y="1.879">01101001011110000</text><text x="0" y="4.171">11101000110110001</text><text x="0" y="6.463">10000101101101011</text><text x="0" y="8.755">00001011101000110</text><text x="0" y="11.047">10010110111001101</text><text x="0" y="13.339">00101101001011110</text><text x="0" y="15.631">00011101000110110</text><text x="0" y="17.923">00110000101101101</text><text x="0" y="20.215">01100001011101000</text></g></pattern><pattern id="gn" width="27.54" height="20.628" patternUnits="userSpaceOnUse"><g font-family="IBM Plex Mono,ui-monospace,monospace" font-size="3.0" letter-spacing="-0.045" fill="#000000" xml:space="preserve"><text x="0" y="1.879">01101001011110000</text><text x="0" y="4.171">11101000110110001</text><text x="0" y="6.463">10000101101101011</text><text x="0" y="8.755">00001011101000110</text><text x="0" y="11.047">10010110111001101</text><text x="0" y="13.339">00101101001011110</text><text x="0" y="15.631">00011101000110110</text><text x="0" y="17.923">00110000101101101</text><text x="0" y="20.215">01100001011101000</text></g></pattern><pattern id="tn" width="27.675" height="21.01" patternUnits="userSpaceOnUse"><g font-family="IBM Plex Mono,ui-monospace,monospace" font-size="1.25" letter-spacing="-0.0188" fill="#000000" xml:space="preserve"><text x="0" y="0.783">01101001011110000111010001101100011000010</text><text x="0" y="1.738">11011010110000101110100011010010110111001</text><text x="0" y="2.693">10100101101001011110000111010001101100011</text><text x="0" y="3.648">00001011011010110000101110100011010010110</text><text x="0" y="4.603">11100110100101101001011110000111010001101</text><text x="0" y="5.558">10001100001011011010110000101110100011010</text><text x="0" y="6.513">01011011100110100101101001011110000111010</text><text x="0" y="7.468">00110110001100001011011010110000101110100</text><text x="0" y="8.423">01101001011011100110100101101001011110000</text><text x="0" y="9.378">11101000110110001100001011011010110000101</text><text x="0" y="10.333">11010001101001011011100110100101101001011</text><text x="0" y="11.288">11000011101000110110001100001011011010110</text><text x="0" y="12.243">00010111010001101001011011100110100101101</text><text x="0" y="13.198">00101111000011101000110110001100001011011</text><text x="0" y="14.153">01011000010111010001101001011011100110100</text><text x="0" y="15.108">10110100101111000011101000110110001100001</text><text x="0" y="16.063">01101101011000010111010001101001011011100</text><text x="0" y="17.018">11010010110100101111000011101000110110001</text><text x="0" y="17.973">10000101101101011000010111010001101001011</text><text x="0" y="18.928">01110011010010110100101111000011101000110</text><text x="0" y="19.883">11000110000101101101011000010111010001101</text><text x="0" y="20.838">00101101110011010010110100101111000011101</text></g></pattern></defs><mask id="m" maskUnits="userSpaceOnUse" x="-60" y="-60" width="420" height="300"><rect x="-60" y="-60" width="420" height="300" fill="#fff"/><rect x="84" y="44" width="12" height="12" fill="#000"/></mask><g fill="#3BAE88" mask="url(#m)"><rect x="37.5" y="-2.5" width="25" height="25"/><rect x="117.5" y="-2.5" width="25" height="25"/><rect x="57.5" y="17.5" width="25" height="25"/><rect x="97.5" y="17.5" width="25" height="25"/><rect x="57.5" y="57.5" width="25" height="25"/><rect x="97.5" y="57.5" width="25" height="25"/><rect x="37.5" y="77.5" width="25" height="25"/><rect x="117.5" y="77.5" width="25" height="25"/><rect x="73" y="33" width="34" height="34"/></g></svg>